<svg version="1.1" id="Layer_1" xmlns="http://www.w3.org/2000/svg" xmlns:xlink="http://www.w3.org/1999/xlink" x="0px" y="0px"
	 width="100%" viewBox="0 0 276 286" enable-background="new 0 0 276 286" xml:space="preserve">
<path fill="#010101" opacity="1.000000" stroke="none" 
	d="
M122.000000,287.000000 
	C81.333336,287.000000 41.166668,287.000000 1.000000,287.000000 
	C1.000000,191.666672 1.000000,96.333336 1.000000,1.000000 
	C93.000000,1.000000 185.000000,1.000000 277.000000,1.000000 
	C277.000000,96.333336 277.000000,191.666672 277.000000,287.000000 
	C225.500000,287.000000 174.000000,287.000000 122.000000,287.000000 
M196.703644,216.001968 
	C201.263138,215.076782 205.962555,214.582962 210.359528,213.156693 
	C239.930786,203.564514 258.469299,175.451202 255.531921,144.990280 
	C252.403931,112.552315 229.244064,88.590477 197.357849,84.801750 
	C146.714050,78.784248 109.313049,125.588104 126.311714,173.622101 
	C134.189972,195.884079 158.255737,219.964203 196.703644,216.001968 
M71.484619,142.051666 
	C63.257740,133.615158 52.856693,131.764389 43.470428,137.066818 
	C34.366928,142.209488 29.862583,152.985352 32.562599,163.161880 
	C34.909660,172.008118 42.342670,178.823944 50.957771,180.029633 
	C60.437977,181.356430 69.020424,177.300995 73.878410,169.199005 
	C78.837128,160.929047 78.114914,151.012543 71.484619,142.051666 
z"/>
<path fill="#FAFAFA" opacity="1.000000" stroke="none" 
	d="
M196.257507,216.050690 
	C158.255737,219.964203 134.189972,195.884079 126.311714,173.622101 
	C109.313049,125.588104 146.714050,78.784248 197.357849,84.801750 
	C229.244064,88.590477 252.403931,112.552315 255.531921,144.990280 
	C258.469299,175.451202 239.930786,203.564514 210.359528,213.156693 
	C205.962555,214.582962 201.263138,215.076782 196.257507,216.050690 
M226.124786,151.446640 
	C225.979630,148.622726 225.998444,145.779175 225.662888,142.978058 
	C223.359634,123.751274 209.579880,111.140762 190.150452,110.387741 
	C171.313950,109.657700 155.911591,121.417297 153.012558,140.287384 
	C151.783722,148.285873 152.167587,157.059372 154.122314,164.906769 
	C157.861221,179.916748 168.353027,188.600616 183.931046,190.293427 
	C199.199509,191.952591 212.430008,187.683990 220.104996,173.705582 
	C223.564026,167.405670 224.181351,159.545486 226.124786,151.446640 
z"/>
<path fill="#F9F9F9" opacity="1.000000" stroke="none" 
	d="
M71.713158,142.329071 
	C78.114914,151.012543 78.837128,160.929047 73.878410,169.199005 
	C69.020424,177.300995 60.437977,181.356430 50.957771,180.029633 
	C42.342670,178.823944 34.909660,172.008118 32.562599,163.161880 
	C29.862583,152.985352 34.366928,142.209488 43.470428,137.066818 
	C52.856693,131.764389 63.257740,133.615158 71.713158,142.329071 
z"/>
<path fill="#040404" opacity="1.000000" stroke="none" 
	d="
M226.106384,151.919952 
	C224.181351,159.545486 223.564026,167.405670 220.104996,173.705582 
	C212.430008,187.683990 199.199509,191.952591 183.931046,190.293427 
	C168.353027,188.600616 157.861221,179.916748 154.122314,164.906769 
	C152.167587,157.059372 151.783722,148.285873 153.012558,140.287384 
	C155.911591,121.417297 171.313950,109.657700 190.150452,110.387741 
	C209.579880,111.140762 223.359634,123.751274 225.662888,142.978058 
	C225.998444,145.779175 225.979630,148.622726 226.106384,151.919952 
z"/>
</svg>